<?xml version="1.0" encoding="UTF-8" standalone="no"?>
<!-- Created using Krita: https://krita.org -->

<svg
   width="77.064072pt"
   height="233.73764pt"
   viewBox="0 0 77.064072 233.73764"
   version="1.1"
   id="svg1"
   sodipodi:docname="skullkey.svg"
   xml:space="preserve"
   inkscape:version="1.4.2 (ebf0e940d0, 2025-05-08)"
   xmlns:inkscape="http://www.inkscape.org/namespaces/inkscape"
   xmlns:sodipodi="http://sodipodi.sourceforge.net/DTD/sodipodi-0.dtd"
   xmlns:xlink="http://www.w3.org/1999/xlink"
   xmlns="http://www.w3.org/2000/svg"
   xmlns:svg="http://www.w3.org/2000/svg"><sodipodi:namedview
     id="namedview1"
     pagecolor="#505050"
     bordercolor="#ffffff"
     borderopacity="1"
     inkscape:showpageshadow="0"
     inkscape:pageopacity="0"
     inkscape:pagecheckerboard="1"
     inkscape:deskcolor="#505050"
     inkscape:document-units="pt"
     inkscape:zoom="4"
     inkscape:cx="24.125"
     inkscape:cy="98.875"
     inkscape:window-width="1920"
     inkscape:window-height="1051"
     inkscape:window-x="0"
     inkscape:window-y="0"
     inkscape:window-maximized="1"
     inkscape:current-layer="svg1"
     showgrid="false"><inkscape:grid
       id="grid8"
       units="pt"
       originx="-141.46796"
       originy="-161.26236"
       spacingx="1"
       spacingy="1"
       empcolor="#0099e5"
       empopacity="0.30196078"
       color="#0099e5"
       opacity="0.14901961"
       empspacing="5"
       enabled="true"
       visible="false" /></sodipodi:namedview><defs
     id="defs1"><linearGradient
       id="linearGradient21"
       inkscape:collect="always"><stop
         style="stop-color:#ff5b5b;stop-opacity:0;"
         offset="0.52054793"
         id="stop21" /><stop
         style="stop-color:#ffdbb3;stop-opacity:1;"
         offset="0.99828768"
         id="stop22" /></linearGradient><linearGradient
       id="linearGradient19"
       inkscape:collect="always"><stop
         style="stop-color:#bababa;stop-opacity:1;"
         offset="0"
         id="stop19" /><stop
         style="stop-color:#bababa;stop-opacity:0;"
         offset="1"
         id="stop20" /></linearGradient><linearGradient
       id="linearGradient17"
       inkscape:collect="always"><stop
         style="stop-color:#cdcdcd;stop-opacity:1;"
         offset="0"
         id="stop17" /><stop
         style="stop-color:#ffd8a5;stop-opacity:1;"
         offset="1"
         id="stop18" /></linearGradient><linearGradient
       id="swatch13"
       inkscape:swatch="solid"><stop
         style="stop-color:#000000;stop-opacity:1;"
         offset="0"
         id="stop13" /></linearGradient><linearGradient
       id="linearGradient5"
       inkscape:collect="always"><stop
         style="stop-color:#000000;stop-opacity:1;"
         offset="0"
         id="stop5" /><stop
         style="stop-color:#270000;stop-opacity:1;"
         offset="1"
         id="stop6" /></linearGradient><inkscape:path-effect
       effect="mirror_symmetry"
       start_point="38.532036,0"
       end_point="38.532036,233.73764"
       center_point="38.532036,116.86882"
       id="path-effect5"
       is_visible="true"
       lpeversion="1.2"
       lpesatellites=""
       mode="vertical"
       discard_orig_path="false"
       fuse_paths="true"
       oposite_fuse="false"
       split_items="false"
       split_open="false"
       link_styles="false" /><inkscape:path-effect
       effect="powerstroke"
       message=""
       id="path-effect2"
       is_visible="true"
       lpeversion="1.3"
       scale_width="1"
       interpolator_type="CubicBezierJohan"
       interpolator_beta="0.2"
       start_linecap_type="zerowidth"
       end_linecap_type="zerowidth"
       offset_points="45,5.9868812"
       linejoin_type="extrp_arc"
       miter_limit="4"
       not_jump="false"
       sort_points="true" /><inkscape:path-effect
       effect="mirror_symmetry"
       start_point="180,161.26236"
       end_point="180,395"
       center_point="180,278.13118"
       id="path-effect40"
       is_visible="true"
       lpeversion="1.2"
       lpesatellites=""
       mode="vertical"
       discard_orig_path="false"
       fuse_paths="true"
       oposite_fuse="false"
       split_items="false"
       split_open="false"
       link_styles="false" /><inkscape:path-effect
       effect="powerstroke"
       message=""
       id="path-effect38"
       is_visible="true"
       lpeversion="1.3"
       scale_width="1"
       interpolator_type="CubicBezierJohan"
       interpolator_beta="0.2"
       start_linecap_type="zerowidth"
       end_linecap_type="zerowidth"
       offset_points="15,5.9868812"
       linejoin_type="extrp_arc"
       miter_limit="4"
       not_jump="false"
       sort_points="true" /><inkscape:path-effect
       effect="mirror_symmetry"
       start_point="83.000002,226"
       end_point="83.000002,251"
       center_point="83.000002,238.5"
       id="path-effect35"
       is_visible="true"
       lpeversion="1.2"
       lpesatellites=""
       mode="free"
       discard_orig_path="false"
       fuse_paths="false"
       oposite_fuse="false"
       split_items="false"
       split_open="false"
       link_styles="false" /><inkscape:path-effect
       effect="powerstroke"
       message=""
       id="path-effect33"
       is_visible="true"
       lpeversion="1.3"
       scale_width="1"
       interpolator_type="CubicBezierJohan"
       interpolator_beta="0.2"
       start_linecap_type="zerowidth"
       end_linecap_type="zerowidth"
       offset_points="47,5.9868812"
       linejoin_type="extrp_arc"
       miter_limit="4"
       not_jump="false"
       sort_points="true" /><inkscape:path-effect
       effect="mirror_symmetry"
       start_point="83.000003,219.34735"
       end_point="83.000003,231.19134"
       center_point="83.000003,225.26934"
       id="path-effect30"
       is_visible="true"
       lpeversion="1.2"
       lpesatellites=""
       mode="free"
       discard_orig_path="false"
       fuse_paths="true"
       oposite_fuse="false"
       split_items="false"
       split_open="false"
       link_styles="false" /><inkscape:path-effect
       effect="powerstroke"
       message=""
       id="path-effect28"
       is_visible="true"
       lpeversion="1.3"
       scale_width="1"
       interpolator_type="CubicBezierJohan"
       interpolator_beta="0.2"
       start_linecap_type="zerowidth"
       end_linecap_type="zerowidth"
       offset_points="12,5.9868812"
       linejoin_type="extrp_arc"
       miter_limit="4"
       not_jump="false"
       sort_points="true" /><inkscape:path-effect
       effect="powerstroke"
       message=""
       id="path-effect26"
       is_visible="true"
       lpeversion="1.3"
       scale_width="1"
       interpolator_type="CubicBezierJohan"
       interpolator_beta="0.2"
       start_linecap_type="zerowidth"
       end_linecap_type="zerowidth"
       offset_points="9,5.9868812"
       linejoin_type="extrp_arc"
       miter_limit="4"
       not_jump="false"
       sort_points="true" /><inkscape:path-effect
       effect="mirror_symmetry"
       start_point="74.999969,162.26236"
       end_point="74.999969,396"
       center_point="74.999969,279.13118"
       id="path-effect25"
       is_visible="true"
       lpeversion="1.2"
       lpesatellites=""
       mode="vertical"
       discard_orig_path="false"
       fuse_paths="false"
       oposite_fuse="false"
       split_items="false"
       split_open="false"
       link_styles="false" /><linearGradient
       id="linearGradient24"
       inkscape:collect="always"><stop
         style="stop-color:#ffffff;stop-opacity:1;"
         offset="0"
         id="stop24" /><stop
         style="stop-color:#c0c0c0;stop-opacity:1;"
         offset="1"
         id="stop25" /></linearGradient><inkscape:path-effect
       effect="powerstroke"
       message=""
       id="path-effect23"
       is_visible="true"
       lpeversion="1.3"
       scale_width="1"
       interpolator_type="CubicBezierJohan"
       interpolator_beta="0.2"
       start_linecap_type="zerowidth"
       end_linecap_type="zerowidth"
       offset_points="18,5.9868812"
       linejoin_type="extrp_arc"
       miter_limit="4"
       not_jump="false"
       sort_points="true" /><inkscape:path-effect
       center_point="81.093749,278.615"
       end_point="81.093749,395.48382"
       start_point="81.093749,161.74618"
       effect="mirror_symmetry"
       id="path-effect22"
       is_visible="true"
       lpeversion="1.2"
       lpesatellites=""
       mode="vertical"
       discard_orig_path="false"
       fuse_paths="false"
       oposite_fuse="false"
       split_items="false"
       split_open="false"
       link_styles="false" /><inkscape:path-effect
       effect="powerstroke"
       message=""
       id="path-effect20"
       is_visible="true"
       lpeversion="1.3"
       scale_width="1"
       interpolator_type="CubicBezierJohan"
       interpolator_beta="0.2"
       start_linecap_type="zerowidth"
       end_linecap_type="zerowidth"
       offset_points="6.8183699,5.9868812"
       linejoin_type="extrp_arc"
       miter_limit="4"
       not_jump="false"
       sort_points="true" /><inkscape:path-effect
       effect="mirror_symmetry"
       start_point="180,161.26236"
       end_point="180,395"
       center_point="180,278.13118"
       id="path-effect18"
       is_visible="true"
       lpeversion="1.2"
       lpesatellites=""
       mode="vertical"
       discard_orig_path="false"
       fuse_paths="true"
       oposite_fuse="false"
       split_items="false"
       split_open="false"
       link_styles="false" /><inkscape:path-effect
       effect="powerstroke"
       message=""
       id="path-effect16"
       is_visible="true"
       lpeversion="1.3"
       scale_width="1"
       interpolator_type="CubicBezierJohan"
       interpolator_beta="0.2"
       start_linecap_type="zerowidth"
       end_linecap_type="zerowidth"
       offset_points="8.3255108,14.150943"
       linejoin_type="extrp_arc"
       miter_limit="4"
       not_jump="false"
       sort_points="true" /><inkscape:path-effect
       effect="mirror_symmetry"
       start_point="180,0"
       end_point="180,720"
       center_point="180,360"
       id="path-effect13"
       is_visible="true"
       lpeversion="1.2"
       lpesatellites=""
       mode="vertical"
       discard_orig_path="false"
       fuse_paths="true"
       oposite_fuse="false"
       split_items="false"
       split_open="false"
       link_styles="true" /><inkscape:path-effect
       effect="fill_between_many"
       id="path-effect12"
       is_visible="true"
       lpeversion="1.2"
       linkedpaths=""
       method="bsplinespiro"
       join="true"
       close="true"
       autoreverse="true" /><linearGradient
       id="swatch10"
       inkscape:swatch="solid"><stop
         style="stop-color:#000000;stop-opacity:1;"
         offset="0"
         id="stop10" /></linearGradient><inkscape:path-effect
       effect="powerstroke"
       message=""
       id="path-effect9"
       is_visible="true"
       lpeversion="1.3"
       scale_width="1"
       interpolator_type="CubicBezierJohan"
       interpolator_beta="0.2"
       start_linecap_type="zerowidth"
       end_linecap_type="zerowidth"
       offset_points="7,14.150943"
       linejoin_type="extrp_arc"
       miter_limit="4"
       not_jump="false"
       sort_points="true" /><inkscape:path-effect
       effect="mirror_symmetry"
       start_point="178.30461,-9.275504"
       end_point="178.30461,710.7245"
       center_point="178.30461,350.7245"
       id="path-effect8"
       is_visible="true"
       lpeversion="1.2"
       lpesatellites=""
       mode="vertical"
       discard_orig_path="false"
       fuse_paths="true"
       oposite_fuse="false"
       split_items="false"
       split_open="false"
       link_styles="false" /><inkscape:path-effect
       effect="mirror_symmetry"
       start_point="178.30461,-9.275504"
       end_point="178.30461,710.7245"
       center_point="178.30461,350.7245"
       id="path-effect3"
       is_visible="true"
       lpeversion="1.2"
       lpesatellites=""
       mode="vertical"
       discard_orig_path="false"
       fuse_paths="true"
       oposite_fuse="false"
       split_items="false"
       split_open="false"
       link_styles="false" /><inkscape:path-effect
       effect="mirror_symmetry"
       start_point="90.567972,-7.2597757"
       end_point="86.297509,77.207941"
       center_point="88.43274,34.974083"
       id="path-effect1"
       is_visible="true"
       lpeversion="1.2"
       lpesatellites=""
       mode="free"
       discard_orig_path="false"
       fuse_paths="false"
       oposite_fuse="false"
       split_items="false"
       split_open="false"
       link_styles="false" /><inkscape:path-effect
       effect="fill_between_many"
       method="bsplinespiro"
       autoreverse="false"
       close="false"
       join="false"
       linkedpaths="#path8,0,1"
       id="path-effect10"
       is_visible="true"
       lpeversion="0" /><inkscape:path-effect
       effect="fill_between_many"
       method="bsplinespiro"
       autoreverse="false"
       close="false"
       join="false"
       linkedpaths="#path16,0,1"
       id="path-effect17"
       is_visible="true"
       lpeversion="0" /><inkscape:path-effect
       effect="fill_between_many"
       method="bsplinespiro"
       autoreverse="false"
       close="false"
       join="false"
       linkedpaths="#path20,0,1"
       id="path-effect21"
       is_visible="true"
       lpeversion="0" /><inkscape:path-effect
       effect="fill_between_many"
       method="bsplinespiro"
       autoreverse="false"
       close="false"
       join="false"
       linkedpaths="#path22,0,1"
       id="path-effect24"
       is_visible="true"
       lpeversion="0" /><linearGradient
       inkscape:collect="always"
       xlink:href="#linearGradient24"
       id="linearGradient25"
       x1="40"
       y1="180.20679"
       x2="62.446365"
       y2="180.20679"
       gradientUnits="userSpaceOnUse" /><inkscape:path-effect
       effect="fill_between_many"
       method="bsplinespiro"
       autoreverse="false"
       close="false"
       join="false"
       linkedpaths="#path25,0,1"
       id="path-effect27"
       is_visible="true"
       lpeversion="0" /><inkscape:path-effect
       effect="fill_between_many"
       method="bsplinespiro"
       autoreverse="false"
       close="false"
       join="false"
       linkedpaths="#path27,0,1"
       id="path-effect29"
       is_visible="true"
       lpeversion="0" /><inkscape:path-effect
       effect="fill_between_many"
       method="bsplinespiro"
       autoreverse="false"
       close="false"
       join="false"
       linkedpaths="#path33,0,1"
       id="path-effect34"
       is_visible="true"
       lpeversion="0" /><inkscape:path-effect
       effect="fill_between_many"
       method="bsplinespiro"
       autoreverse="false"
       close="false"
       join="false"
       linkedpaths="#path38,0,1"
       id="path-effect39"
       is_visible="true"
       lpeversion="0" /><inkscape:path-effect
       effect="fill_between_many"
       method="bsplinespiro"
       autoreverse="false"
       close="false"
       join="false"
       linkedpaths="#path1,0,1"
       id="path-effect4" /><radialGradient
       inkscape:collect="always"
       xlink:href="#linearGradient5"
       id="radialGradient6"
       cx="38.532036"
       cy="74.23764"
       fx="38.532036"
       fy="74.23764"
       r="25.000002"
       gradientTransform="matrix(1,0,0,0.50000002,0,37.118819)"
       gradientUnits="userSpaceOnUse" /><linearGradient
       inkscape:collect="always"
       xlink:href="#linearGradient17"
       id="linearGradient18"
       x1="180"
       y1="297.5"
       x2="180"
       y2="337.5"
       gradientUnits="userSpaceOnUse" /><linearGradient
       inkscape:collect="always"
       xlink:href="#linearGradient19"
       id="linearGradient20"
       x1="7.545035"
       y1="76.696746"
       x2="69.519037"
       y2="76.696746"
       gradientUnits="userSpaceOnUse" /><linearGradient
       inkscape:collect="always"
       xlink:href="#linearGradient21"
       id="linearGradient22"
       x1="74.999962"
       y1="145.01845"
       x2="74.999969"
       y2="215.31029"
       gradientUnits="userSpaceOnUse" /></defs><path
     style="fill:url(#linearGradient18);fill-rule:nonzero;stroke:none;stroke-width:11.9738;stroke-dasharray:none;stroke-opacity:1"
     d="m 180,250 h -5 c 0,0 0.76584,6.75584 0,10 -0.17125,0.72542 -0.29289,1.7643 -1,2 -1.41421,0.4714 -2.79067,-1.12837 -4,-2 -1.91212,-1.37818 -4.09801,-2.8224 -5,-5 -0.63781,-1.5398 0,-3.33333 0,-5 v -10 h -5 v 10 5 l 5,5 2.5,2.5 2.5,2.5 5,5 -5,5 5,10 -5,10 v 25 l 5,5 -5,5 v 10 l -10,5 10,5 v 10 l 5,10 -5,10 10,14.99999 9.99999,-14.99999 -5,-10 5,-10 v -10 l 10,-5 -10,-5 v -10 l -5,-5 5,-5 v -25 l -5,-10 5,-10 -5,-5 5,-5 2.5,-2.5 2.5,-2.5 5,-5 v -5 -10 h -5 v 10 c 0,1.66667 0.63781,3.4602 0,5 -0.90199,2.1776 -3.08788,3.62182 -5,5 -1.20933,0.87163 -2.58579,2.4714 -4,2 -0.70711,-0.2357 -0.82875,-1.27458 -1,-2 -0.76584,-3.24416 0,-10 0,-10 z"
     id="path38"
     inkscape:linked-fill="path39"
     sodipodi:nodetypes="ccaaaaaccccccccccccccccccccc"
     inkscape:path-effect="#path-effect40"
     inkscape:original-d="m 180,250 h -5 c 0,0 0.76584,6.75584 0,10 -0.17125,0.72542 -0.29289,1.7643 -1,2 -1.41421,0.4714 -2.79067,-1.12837 -4,-2 -1.91212,-1.37818 -4.09801,-2.8224 -5,-5 -0.63781,-1.5398 0,-3.33333 0,-5 v -10 h -5 v 10 5 l 5,5 2.5,2.5 2.5,2.5 5,5 -5,5 5,10 -5,10 v 25 l 5,5 -5,5 v 10 l -10,5 10,5 v 10 l 5,10 -5,10 10,15"
     inkscape:label="Key Base"
     transform="translate(-141.46796,-161.26236)" /><path
     style="fill:#ffffff;fill-opacity:1;fill-rule:nonzero;stroke:none;stroke-width:28.3019;stroke-dasharray:none;stroke-opacity:1"
     d="m 180,255 c -2.24606,-0.0832 -4.12492,1.86957 -4.96915,2.80316 C 173.42618,259.57769 174,261 173.48672,261 c -0.51327,0 -1.57308,-1.47578 0.0243,-4.17396 C 174.00729,255.98769 173.50357,255.382 173,255 c -0.79671,-0.60437 -2,-1 -3,0 -1,1 -1,1 -0.80583,0 0.19416,-1 -0.64171,-2.07629 -1.19417,-3 -4.91808,-8.22302 -11,-15 -18.5,-22 -0.73003,-0.68136 -2,-2 -3,-3 -1,-1 -2.45575,0.21279 -2.60225,0 -0.1465,-0.21279 2.00079,-1.3112 2.10225,-2 0.41246,-2.8002 0,-15.87018 0,-16.5 0,-0.79582 0.0188,-1.60278 0.0636,-2.45965 C 146.10585,205.23304 141.01939,203 141.5,202 c 0.48061,-1 4.81679,0.96233 4.84554,0.70849 0.34608,-3.05535 0.92512,-8.95606 3.15446,-12.70849 2.77156,-4.66508 7.7153,-7.67049 12.00003,-11 0.51556,-0.40063 1.06716,-0.7279 1.63924,-1.07222 C 163.51431,177.70206 159.5,170 162.5,173 c 1.14819,1.14819 2.82319,3.72578 3.35584,3.46997 5.35497,-2.57175 10.28078,-4.09496 14.14416,-4.09497 3.86337,1e-5 8.78918,1.52322 14.14415,4.09497 0.53265,0.25581 2.20765,-2.32178 3.35584,-3.46997 3,-3 -1.01431,4.70206 -0.63927,4.92778 0.57208,0.34432 1.12368,0.67159 1.63924,1.07222 4.28473,3.32951 9.22847,6.33492 12.00003,11 2.22934,3.75243 2.80838,9.65314 3.15446,12.70849 0.0288,0.25384 4.36493,-1.70849 4.84554,-0.70849 0.48061,1 -4.60585,3.23304 -4.5636,4.04035 0.0448,0.85687 0.0636,1.66383 0.0636,2.45965 0,0.62982 -0.41246,13.6998 0,16.5 0.10146,0.6888 2.24875,1.78721 2.10225,2 -0.1465,0.21279 -1.60225,-1 -2.60225,0 -1,1 -2.26997,2.31864 -3,3 -7.5,7 -13.58192,13.77698 -18.5,22 -0.55246,0.92371 -1.38833,2 -1.19417,3 0.19417,1 0.19417,1 -0.80583,0 -1,-1 -2.20329,-0.60437 -3,0 -0.50357,0.382 -1.00729,0.98769 -0.51102,1.82604 1.59738,2.69818 0.53757,4.17396 0.0243,4.17396 -0.51328,0 0.0605,-1.42231 -1.54413,-3.19684 C 184.12491,256.86957 182.24605,254.9168 180,255 Z"
     id="path16"
     inkscape:linked-fill="path17"
     sodipodi:nodetypes="cszsazzaszzssszsaasssc"
     inkscape:original-d="m 180,255 c -2.24606,-0.0832 -4.12492,1.86957 -4.96915,2.80316 C 173.42618,259.57769 174,261 173.48672,261 c -0.51327,0 -1.57308,-1.47578 0.0243,-4.17396 C 174.00729,255.98769 173.50357,255.382 173,255 c -0.79671,-0.60437 -2,-1 -3,0 -1,1 -1,1 -0.80583,0 0.19416,-1 -0.64171,-2.07629 -1.19417,-3 -4.91808,-8.22302 -11,-15 -18.5,-22 -0.73003,-0.68136 -2,-2 -3,-3 -1,-1 -2.45575,0.21279 -2.60225,0 -0.1465,-0.21279 2.00079,-1.3112 2.10225,-2 0.41246,-2.8002 0,-15.87018 0,-16.5 0,-0.79582 0.0188,-1.60278 0.0636,-2.45965 C 146.10585,205.23304 141.01939,203 141.5,202 c 0.48061,-1 4.81679,0.96233 4.84554,0.70849 0.34608,-3.05535 0.92512,-8.95606 3.15446,-12.70849 2.77156,-4.66508 7.7153,-7.67049 12.00003,-11 0.51556,-0.40063 1.06716,-0.7279 1.63924,-1.07222 C 163.51431,177.70206 159.5,170 162.5,173 c 1.14819,1.14819 2.82319,3.72578 3.35584,3.46997 5.35499,-2.57176 10.28081,-4.09497 14.14419,-4.09497"
     inkscape:path-effect="#path-effect18"
     inkscape:label="Head"
     transform="translate(-141.46796,-161.26236)" /><path
     style="fill:#000000;fill-opacity:1;fill-rule:nonzero;stroke:#ffdbb3;stroke-width:0.50000001;stroke-dasharray:none;stroke-opacity:0.52325583"
     d="M 75.09375,211.48382 C 73.999998,210 59.09375,203.48382 58,204 c -1.09375,0.51618 -0.882593,7.83592 1,11 1.229074,2.06571 3.631567,3.58975 6,4 1.354204,0.23457 2.74312,-0.44399 4,-1 1.099109,-0.48621 2.013102,-1.31409 3,-2 0.707576,-0.49178 1.426382,-0.97108 2.09375,-1.51618 1,-0.81679 2.093752,-1.51618 1,-3 z m 11.999998,0 C 88.1875,210 103.09375,203.48382 104.1875,204 c 1.09375,0.51618 0.88259,7.83592 -1,11 -1.22908,2.06571 -3.631569,3.58975 -6.000002,4 -1.354204,0.23457 -2.74312,-0.44399 -4,-1 -1.099109,-0.48621 -2.013102,-1.31409 -3,-2 -0.707576,-0.49178 -1.426382,-0.97108 -2.09375,-1.51618 -1,-0.81679 -2.093752,-1.51618 -1,-3 z"
     id="path20"
     inkscape:linked-fill="path21"
     sodipodi:nodetypes="zzaaaasz"
     transform="translate(-42.561713,-161.74618)"
     inkscape:path-effect="#path-effect22"
     inkscape:original-d="M 75.09375,211.48382 C 73.999998,210 59.09375,203.48382 58,204 c -1.09375,0.51618 -0.882593,7.83592 1,11 1.229074,2.06571 3.631567,3.58975 6,4 1.354204,0.23457 2.74312,-0.44399 4,-1 1.099109,-0.48621 2.013102,-1.31409 3,-2 0.707576,-0.49178 1.426382,-0.97108 2.09375,-1.51618 1,-0.81679 2.093752,-1.51618 1,-3 z"
     inkscape:label="Eye" /><path
     style="fill:url(#linearGradient25);fill-rule:nonzero;stroke:url(#linearGradient22);stroke-width:0.3;stroke-dasharray:none;stroke-opacity:1"
     d="m 55,198 c -0.835883,0.24464 -1.764985,-0.23548 -2.530467,-0.65092 C 51.885096,197.0319 51.267529,196.60877 51,196 c -0.268216,-0.61033 0.255122,-1.38408 0,-2 -0.180399,-0.43552 -0.666667,-0.66667 -1,-1 0,0 -2.89746,-2.47031 -4,-4 -0.871635,-1.20933 -1.282656,-2.69323 -2,-4 -0.935302,-1.70382 -2.299126,-3.18711 -3,-5 -0.612896,-1.58532 -0.832518,-3.3086 -1,-5 -0.328459,-3.31711 3e-5,-8 0,-10 -3e-5,-2 2.23933,-3.17282 3.61965,-2.58641 C 44.99997,163 44.00003,164 45,165 c 0.99997,1 1.807794,-0.21788 1.403882,1.39106 C 45.99997,168 46.398678,168.85879 46.80163,170 c 0.658727,1.8656 1.958564,3.45816 3.19837,5 1.477015,1.83684 3.333333,3.33333 5,5 1.666667,1.66667 3.630077,3.08196 5,5 1.078413,1.50989 2.718636,3.16462 2.446367,5 -0.534582,3.60365 -3.94996,6.97668 -7.446367,8 z m 39.999938,0 c 0.835883,0.24464 1.764985,-0.23548 2.530467,-0.65092 0.584437,-0.31718 1.202004,-0.74031 1.469533,-1.34908 0.268216,-0.61033 -0.255122,-1.38408 0,-2 0.180399,-0.43552 0.666667,-0.66667 1,-1 0,0 2.897462,-2.47031 4.000002,-4 0.87163,-1.20933 1.28265,-2.69323 2,-4 0.9353,-1.70382 2.29912,-3.18711 3,-5 0.61289,-1.58532 0.83252,-3.3086 1,-5 0.32846,-3.31711 -3e-5,-8 0,-10 3e-5,-2 -2.23933,-3.17282 -3.61965,-2.58641 C 104.99997,163 105.99991,164 104.99994,165 c -0.99997,1 -1.8078,-0.21788 -1.40388,1.39106 0.40391,1.60894 0.005,2.46773 -0.39775,3.60894 -0.65873,1.8656 -1.95857,3.45816 -3.198372,5 -1.477015,1.83684 -3.333333,3.33333 -5,5 -1.666667,1.66667 -3.630077,3.08196 -5,5 -1.078413,1.50989 -2.718636,3.16462 -2.446367,5 0.534582,3.60365 3.94996,6.97668 7.446367,8 z"
     id="path22"
     inkscape:linked-fill="path24"
     transform="translate(-36.467933,-162.26236)"
     inkscape:path-effect="#path-effect25"
     inkscape:original-d="m 55,198 c -0.835883,0.24464 -1.764985,-0.23548 -2.530467,-0.65092 C 51.885096,197.0319 51.267529,196.60877 51,196 c -0.268216,-0.61033 0.255122,-1.38408 0,-2 -0.180399,-0.43552 -0.666667,-0.66667 -1,-1 0,0 -2.89746,-2.47031 -4,-4 -0.871635,-1.20933 -1.282656,-2.69323 -2,-4 -0.935302,-1.70382 -2.299126,-3.18711 -3,-5 -0.612896,-1.58532 -0.832518,-3.3086 -1,-5 -0.328459,-3.31711 3e-5,-8 0,-10 -3e-5,-2 2.23933,-3.17282 3.61965,-2.58641 C 44.99997,163 44.00003,164 45,165 c 0.99997,1 1.807794,-0.21788 1.403882,1.39106 C 45.99997,168 46.398678,168.85879 46.80163,170 c 0.658727,1.8656 1.958564,3.45816 3.19837,5 1.477015,1.83684 3.333333,3.33333 5,5 1.666667,1.66667 3.630077,3.08196 5,5 1.078413,1.50989 2.718636,3.16462 2.446367,5 -0.534582,3.60365 -3.94996,6.97668 -7.446367,8 z"
     sodipodi:nodetypes="aaaaaaaaazzzzaaaaaa"
     inkscape:label="Horn" /><path
     style="fill:#000000;fill-opacity:1;fill-rule:nonzero;stroke:none;stroke-width:11.9738;stroke-dasharray:none;stroke-opacity:1"
     d="m 81.59375,219.34961 c -0.01872,0.001 -0.03615,0.004 -0.05469,0.008 C 80.805312,219.51291 80.383845,220.35562 80,221 c -0.539446,0.9056 -0.596616,2.02615 -1,3 -0.570471,1.37724 -1.657505,2.54917 -2,4 -0.07658,0.32442 -0.127561,0.69204 0,1 0.180398,0.43552 0.666667,0.66667 1,1 0.333333,0.33333 0.56448,0.8196 1,1 0.61592,0.25512 1.38408,0.25512 2,0 0.43552,-0.1804 0.776189,-0.58511 1,-1 0.536598,-0.99471 0.431307,-2.21952 0.6875,-3.32031 0.0372,-0.15982 0.02848,-0.34246 0.123047,-0.47657 0.04402,-0.0624 0.189453,-0.1289 0.189453,-0.1289 0,0 0.145433,0.0665 0.189453,0.1289 0.09457,0.13411 0.08585,0.31675 0.123047,0.47657 0.256193,1.10079 0.150902,2.3256 0.6875,3.32031 0.223811,0.41489 0.56448,0.8196 1,1 0.61592,0.25512 1.38408,0.25512 2,0 0.43552,-0.1804 0.666667,-0.66667 1,-1 0.333333,-0.33333 0.819602,-0.56448 1,-1 0.127561,-0.30796 0.07658,-0.67558 0,-1 -0.342495,-1.45083 -1.429529,-2.62276 -2,-4 -0.403384,-0.97385 -0.460554,-2.0944 -1,-3 -0.383845,-0.64438 -0.805312,-1.48709 -1.539063,-1.64258 -0.296555,-0.0628 -0.616135,0.23819 -0.919921,0.36914 -0.182258,0.0786 -0.541016,0.25 -0.541016,0.25 0,0 -0.358758,-0.17143 -0.541016,-0.25 -0.284799,-0.12276 -0.584501,-0.39521 -0.865234,-0.37695 z"
     id="path27"
     inkscape:linked-fill="path29"
     sodipodi:nodetypes="casaaaaaaaaaacc"
     transform="translate(-44.467966,-160.59945)"
     inkscape:path-effect="#path-effect30"
     inkscape:original-d="m 83.000003,219.97656 c 0,0 -0.358151,-0.17138 -0.540409,-0.24995 -0.303786,-0.13095 -0.624786,-0.43167 -0.921342,-0.36883 -0.733751,0.15549 -1.154405,0.99784 -1.53825,1.64222 -0.539446,0.9056 -0.596621,2.02615 -1.000005,3 -0.570471,1.37724 -1.6575,2.54917 -1.999995,4 -0.07658,0.32442 -0.127561,0.69204 0,1 0.180398,0.43552 0.666665,0.66667 0.999998,1 0.333333,0.33333 0.564478,0.8196 0.999998,1 0.61592,0.25512 1.384082,0.25512 2.000002,0 0.43552,-0.1804 0.776187,-0.58511 0.999998,-1 0.536598,-0.99471 0.430784,-2.21952 0.686977,-3.32031 0.0372,-0.15982 0.0288,-0.34247 0.123368,-0.47657 0.04402,-0.0624 0.18966,-0.12854 0.18966,-0.12854 z"
     inkscape:label="Nose" /><path
     style="fill:url(#radialGradient6);fill-opacity:1;fill-rule:nonzero;stroke:url(#linearGradient20);stroke-width:1;stroke-dasharray:none;stroke-opacity:1"
     d="m 38.532036,78.737638 -2.000001,-2.999998 -0.999998,2.000002 -1.000004,-2.000002 -0.999998,0.999998 -0.999998,-1.999998 -1.000005,1.999998 -0.999997,-1.999998 -1,1.999998 -1,-2.999998 -1,2 -1,-2 -1,1 v -2 l -1,1 -1,-2 -1,2 -2,-2 v -6 l -2,-2 -3,-1 -2,-1 v 2 l 1,2 v 2 l 2,2 1,2 3,3 1,1.999998 2,1.000005 5e-6,0.999997 h 1.999995 v 3 l 1,-0.999997 1,1.999995 1,-0.999998 1,2.000003 1,-1.000005 0.999997,3 1.000005,-1.999995 0.999998,1.999995 0.999998,-0.999998 1.000004,0.999998 0.999998,-0.999998 0.999997,2.000002 1.000004,-2 1.000004,2 0.999997,-2.000002 0.999998,0.999998 1.000004,-0.999998 0.999998,0.999998 0.999998,-1.999995 1.000005,1.999995 0.999997,-3 1,1.000005 1,-2.000003 1,0.999998 1,-1.999995 1,0.999997 v -3 h 1.999995 l 5e-6,-0.999997 2,-1.000005 1,-1.999998 3,-3 1,-2 2,-2 v -2 l 1,-2 v -2 l -2,1 -3,1 -2,2 v 6 l -2,2 -1,-2 -1,2 -1,-1 v 2 l -1,-1 -1,2 -1,-2 -1,2.999998 -1,-1.999998 -0.999997,1.999998 -1.000005,-1.999998 -0.999998,1.999998 -0.999998,-0.999998 -1.000004,2.000002 -0.999998,-2.000002 z"
     id="path1"
     inkscape:linked-fill="path4"
     inkscape:label="Mouth"
     sodipodi:nodetypes="cccccccccccccccccccccccccccccccccccccccccccccc"
     inkscape:path-effect="#path-effect5"
     inkscape:original-d="m 38.532037,78.73764 -2.000002,-3 -0.999998,2.000002 -1.000004,-2.000002 -0.999998,0.999998 -0.999998,-1.999998 -1.000005,1.999998 -0.999997,-1.999998 -1,1.999998 -1,-2.999998 -1,2 -1,-2 -1,1 v -2 l -1,1 -1,-2 -1,2 -2,-2 v -6 l -2,-2 -3,-1 -2,-1 v 2 l 1,2 v 2 l 2,2 1,2 3,3 1,1.999998 2,1.000005 5e-6,0.999997 h 1.999995 v 3 l 1,-0.999997 1,1.999995 1,-0.999998 1,2.000003 1,-1.000005 0.999997,3 1.000005,-1.999995 0.999998,1.999995 0.999998,-0.999998 1.000004,0.999998 0.999998,-0.999998 0.999997,2.000002 1.000005,-2.000002" /></svg>
